<svg id="e4I3MLKliUu1" xmlns="http://www.w3.org/2000/svg" xmlns:xlink="http://www.w3.org/1999/xlink" viewBox="0 0 1614 1614" shape-rendering="geometricPrecision" text-rendering="geometricPrecision" project-id="76e80b258fcd4e5c89287d1737847655" export-id="7e02af5290f541cfb1a9e9fe139163dc" cached="false"><path d="M0,0C4.019507,1.869538,5.839861,5.03013,7.411377,9.145752c.651954,2.116605,1.227422,4.239823,1.776123,6.385498.209392.787416.418784,1.574832.634521,2.386108C11.981762,26.148242,13.900565,34.430992,15.6875,42.75c.255295,1.186366.255295,1.186366.515747,2.396698c3.458089,16.190014,6.207711,32.399883,8.205628,48.83316.282118,2.298606.57695,4.595346.872863,6.892212c3.187975,25.206549,3.777724,50.319752,3.780762,75.69043.001467,1.125818.001467,1.125818.002964,2.27438.060258,48.216858-3.719759,96.700172-14.752964,143.737827-.640431,2.741345-1.260342,5.486655-1.875,8.233887-1.229001,5.485377-2.486057,10.96399-3.75,16.441406-.20625.900249-.4125,1.800498-.625,2.728027-2.214644,9.642354-4.547481,19.201813-7.42749,28.668457-1.841598,6.096127-3.432146,12.247012-5.01001,18.416016-1.758852,6.849214-3.607858,13.592316-5.949219,20.269531-1.229267,3.629498-2.298253,7.300387-3.363281,10.980469-1.725368,5.946226-3.516835,11.867158-5.386719,17.769531-.258865.817739-.51773,1.635478-.784439,2.477997-26.147623,82.343572-58.411081,162.415512-109.838119,261.788117-1.489896,2.675868-2.973144,5.355328-4.453888,8.03627-1.656086,2.997983-3.31505,5.994371-4.974335,8.990585-.915557,1.653585-.915557,1.653585-1.849609,3.340576-.592325,1.065813-1.184649,2.131626-1.794922,3.229737-.575728,1.068955-1.151455,2.13791-1.744629,3.239257-1.79834,3.06543-1.79834,3.06543-3.874024,5.623047-7.463461,9.792033-4.531667,20.443799-3.256042,31.976074.951683,9.944436.767266,19.985416.769226,29.966309.004094,1.840766.004094,1.840766.00827,3.718719.012757,39.246145-2.301071,78.803981-6.00534,117.873566-.634967,6.737615-.703072,13.456084-.75293,20.220215-.014583.66717-.029165,1.334341-.044189,2.021729-.04275,1.967688-.056255,3.935942-.069092,5.904052-.021874,1.733105-.021874,1.733105-.04419,3.501221.573549,3.979084,1.995458,6.131431,4.469971,9.260498c6.349087,4.108233,16.215003,1.957671,23.346436,1.185791c16.775202-1.79558,31.682697-1.026417,45.841064,9.314209c14.174715,12.149756,19.558292,29.803088,24.515625,47.128906c1.37346,4.787374,1.37346,4.787374,3.296875,9.371094c2.442886,1.310683,2.442886,1.310683,5,2c.66.33,1.32.66,2,1c1.599151.105604,3.202184.155312,4.804688.175781c21.041821.454165,21.041821.454165,30.195312,4.824219.778594.360938,1.557188.721875,2.359375,1.09375c13.413275,6.845396,23.050521,17.931549,31.515625,30.09375.464626.665156.929253,1.330313,1.407959,2.015625c4.681364,6.893983,8.01441,13.260778,6.717041,21.796875-4.409271,14.146412-20.212966,21.410767-31.9375,28.6875-9.931689,6.370995-14.960615,12.710145-20.0625,23.3125.927279-.498142.927279-.498142,1.873291-1.006348C1.447122,1135.461417,1.447122,1135.461417,13.6875,1131.25c1.614551-.558809,1.614551-.558809,3.261719-1.128906c4.745201-1.105726,9.195862-1.20102,14.050781-1.183594.88623-.016113,1.772461-.032227,2.685547-.048828c8.421391-.006143,16.102039,1.751297,23.314453,6.236328.779883.471797,1.559766.943594,2.363281,1.429688c2.726366,1.988643,4.9609,4.292543,7.324219,6.695312-9.975586,6.650391-9.975586,6.650391-19.951172,13.300781-.720123.480111-1.440245.960221-2.18219,1.45488-1.461767.974454-2.923641,1.948746-4.38562,2.922882-3.511472,2.340013-7.021368,4.682294-10.526916,7.031174-7.297389,4.886262-14.627313,9.703529-22.079102,14.352783-.997896.622859-1.995791,1.245718-3.023926,1.887451-18.625771,11.552784-37.602241,22.569858-56.851074,33.050049-1.309526.717363-1.309526.717363-2.645508,1.449219-24.023043,13.159225-48.217261,25.75328-73.157715,37.092773-2.867924,1.308022-5.727317,2.632401-8.583496,3.965821-43.456454,20.194567-88.456569,36.397555-133.863952,51.570587-2.786465.934048-5.570105,1.876148-8.353333,2.819793-9.529053,3.221163-19.02792,6.273933-28.770996,8.789307-1.10376.291248-2.20752.582495-3.344727.882568-3.092055.815315-6.186029,1.62297-9.280273,2.429932-2.584477.683304-5.167262,1.37263-7.75,2.0625-1.728633.456328-1.728633.456328-3.492187.921875-2.805372.758209-5.59832,1.540128-8.390625,2.34375-16.610662,4.734562-33.448144,8.254977-50.367188,11.671875-.764454.154869-1.528909.309738-2.316528.469299-17.26258,3.493949-34.499894,6.925919-51.977417,9.168396-3.133746.419567-6.259102.884924-9.385742,1.354493-57.124933,8.54157-57.124933,8.54157-67.320313,2.007812-6.063268-5.517703-9.063597-11.831298-11.96875-19.371094-.437758-1.098039-.875515-2.196079-1.326538-3.327392-1.418663-3.57319-2.812456-7.155461-4.204712-10.739014-.734005-1.86837-1.47033-3.735813-2.206802-5.603211-8.156039-20.690228-15.967241-41.501847-23.405198-62.460693-.922854-2.596666-1.850505-5.19158-2.779113-7.786194-6.367594-17.806184-12.694737-35.548475-17.58252-53.828613-.733659-2.625655-1.621126-5.187905-2.526367-7.758789-2.981128-8.657693-5.049513-17.604767-7.316895-26.469238-.850956-3.308329-1.732121-6.607313-2.620605-9.905762-.469863-1.773105-.469863-1.773105-.949219-3.582031-.600782-2.264055-1.211646-4.524601-1.834472-6.782715-4.681197-16.986876-8.357502-34.064346-11.701661-51.355713-.164748-.848717-.329496-1.697433-.499237-2.571869-.310932-1.606773-.618948-3.214115-.923645-4.822082-.720179-3.930528-.720179-3.930528-2.154266-7.63559-.336061-1.837647-.62996-3.683091-.902344-5.53125-.168222-1.121484-.336445-2.242969-.509765-3.398437-.173379-1.178204-.346758-2.356407-.525391-3.570313-1.365603-9.350453-1.365603-9.350453-3.101562-18.636719-1.109125-5.358327-1.763138-10.743763-2.398438-16.175781-.845623-7.07119-1.756958-14.118645-2.843506-21.156982-3.473147-22.689144-3.473147-22.689144-.484619-29.233643c1.963444-2.554215,3.51001-3.638574,6.390625-5.046875c1.194961-.611016,1.194961-.611016,2.414063-1.234375c6.233986-2.138307,12.821466-2.090875,19.356445-2.253418c11.967617-.034176,11.967617-.034176,22.604492-4.762207c2.257294-2.660531,4.209897-5.408506,6.148438-8.308594c4.995232-7.261002,11.367646-10.619858,19.851562-12.691406c5.039008-.468189,10.012252-.535924,15.069336-.466553c2.295337.028923,4.588347.020577,6.883789.007569c22.126162.031141,40.635032,8.010865,58.276855,21.031982c5.101731,3.75867,8.170136,5.602716,14.574708,5.88794c6.50669-1.366174,10.90092-7.101588,15.257812-11.710938c6.438286-6.611735,12.69069-11.488795,20.9375-15.75.899766-.476953,1.799531-.953906,2.726563-1.445312c12.298931-6.058766,25.192272-8.10326,38.709716-9.252442c6.743938-.679229,12.115436-2.124979,17.563721-6.302246c1.974916-2.339847,1.974916-2.339847,2.9375-4.9375.359648-.813398.719297-1.626797,1.089844-2.464844c1.91468-5.113504,3.282355-9.951243,4.160156-15.347656c4.788938-26.953499,14.117143-52.591471,25.8125-77.25.373184-.80083.746367-1.60166,1.130859-2.426758c11.863692-25.350728,27.706281-48.211596,45.306641-69.885742.555022-.687634,1.110044-1.375269,1.681885-2.08374c9.228458-11.159191,9.228458-11.159191,14.087158-11.973633c2.230957-.005127,2.230957-.005127,5.793457.369873-2.94192,8.465341-6.323287,16.726352-9.796936,24.982941-1.67122,3.97534-3.330673,7.955598-4.992126,11.935028-.700844,1.677573-1.40169,3.355144-2.10254,5.032715-.702867,1.683076-1.405667,3.366182-2.108398,5.049316-.340433.815352-.680867,1.630704-1.031616,2.470764-13.908876,33.335287-27.355868,66.662765-36.968384,101.529236-.288921,1.043491-.288921,1.043491-.583679,2.108063-3.767416,13.685526-6.758202,27.48876-9.619446,41.387787-.565013,2.735589-1.137661,5.469501-1.710937,8.203369-.165695.817804-.33139,1.635609-.502106,2.478195-1.282536,6.098212-2.644725,12.320512-6.521332,17.322586-6.34926,3.109842-13.574869,1.873402-20.3125.5-29.384299-5.328559-55.681656,3.321958-79.871582,19.687012-5.113526,3.574284-10.000221,7.426121-14.878418,11.312988-1.329096,1.005624-2.660569,2.008183-4,3c2.251055-.286162,4.501851-.574211,6.752441-.864014c2.038492-.26249,4.07724-.522996,6.116211-.781738c5.641457-.727018,11.260784-1.520011,16.873536-2.444092c21.792674-3.526841,44.676928-5.768097,66.257812.089844c1.422158.362549,1.422158.362549,2.873047.732422c3.238307.830999,6.464556,1.69854,9.689453,2.580078c1.024563.271428,2.049126.542856,3.104736.82251c6.851567,1.973969,12.75723,4.452978,16.487305,10.842773c1.340248,3.205682,1.260055,5.586994.845459,9.022217-3.598641,5.301076-7.106064,7.360348-12.9375,9.75-7.896014,3.47934-14.592572,7.728204-21.412598,12.980957-1.614221,1.241599-3.244378,2.458675-4.880371,3.671387-16.914101,12.6399-32.911877,26.780299-45.769531,43.597656-.800508,1.04543-1.601016,2.090859-2.425781,3.167969-14.689585,19.63107-24.65047,42.071578-30.574219,65.832031-.223008.729609-.446016,1.459219-.675781,2.210938-1.470692,5.222457-1.560347,10.459693-1.636719,15.851562-.017725.756357-.035449,1.512715-.053711,2.291992.007188,5.50382,1.191443,9.590176,3.366211,14.645508.397716-.75954.397716-.75954.803467-1.534424c26.162075-49.60927,63.918592-92.831292,118.493896-110.640381c28.031162-8.558746,57.164966-8.643946,83.515137,5.108399c26.214953,14.486763,43.969722,39.216114,59.131348,64.325683.987141,1.626981,1.995495,3.241037,3.005371,4.854004.553008.890742,1.106015,1.781485,1.675781,2.699219.466641.748945.933281,1.497891,1.414063,2.269531.960937,1.917969.960937,1.917969.960937,4.917969.66,0,1.32,0,2,0-.318274-13.924941-.972875-27.384849-4-41-.230742-1.176914-.461484-2.353828-.699219-3.566406-5.458973-24.259147-20.53618-45.961738-35.112793-65.649658-.518364-.700848-1.036728-1.401695-1.5708-2.12378-.457779-.612224-.915557-1.224448-1.387208-1.855224-1.272047-1.866663-2.266383-3.76439-3.22998-5.804932c13.911048.031473,25.933526,2.235641,39,7c.707534.255234,1.415068.510469,2.144043.773438c16.955077,6.299803,31.547412,17.163237,44.855957,29.226562.560903.505957,1.121807,1.011914,1.699707,1.533203c6.258409,5.663623,12.399555,11.428833,18.300293,17.466797-4.187478-20.588433-16.869904-39.051068-33.957031-51.082031-12.272151-7.9141-26.247436-13.865081-40.289063-17.835938-16.136853-4.570554-16.136853-4.570554-20.335693-11.808838-4.715355-10.882898-.18609-23.612076,2.768982-34.445861c8.876217-32.708353,15.046662-66.037222,19.644836-99.600769.766911-5.576182,1.631832-11.128522,2.543137-16.682862c1.714153-10.46091,3.257173-20.930092,4.624832-31.442138.164854-1.266253.329708-2.532505.499558-3.837128.672402-5.189164,1.340076-10.378901,2.000442-15.569611c1.922063-15.059291,4.06524-29.902247,7.5-44.694824.420914-1.957425.838809-3.91551,1.25-5.875.149531-.698672.299063-1.397344.453125-2.117187.348321-2.355754.346587-4.629933.296875-7.007813-1.269553-.648347-2.540697-1.293578-3.8125-1.9375-1.061543-.539473-1.061543-.539473-2.144531-1.089844-3.130215-1.490293-5.628052-2.096076-9.054688-2.070312-.757324.003222-1.514648.006445-2.294922.009765-.785683.008379-1.571367.016758-2.380859.025391-1.195928.006768-1.195928.006768-2.416016.013672-1.965527.01177-3.931015.029705-5.896484.048828-.172211.961479-.172211.961479-.3479,1.942383-2.991985,16.528268-6.66881,32.785395-10.87378,49.04541-1.006547,3.895476-1.990237,7.796382-2.96582,11.699707-.306797,1.220742-.613594,2.441484-.929687,3.699219-.775049,3.172211-1.504842,6.351741-2.223389,9.537109-1.983045,8.724168-4.410332,17.282308-6.95166,25.859375-1.98853,6.717563-3.888332,13.451569-5.707764,20.216797-2.332634,8.653846-4.80535,17.260165-7.333008,25.858887-2.026512,6.907561-3.99079,13.829963-5.916992,20.766113-2.767897,9.96443-5.635836,19.897706-8.526611,29.826965-3.417263,11.741579-6.81059,23.484698-9.973389,35.298035-.271831,1.012961-.543662,2.025923-.82373,3.06958-1.444643,5.413706-2.850163,10.83602-4.230957,16.266358-.304542,1.177236-.609083,2.354472-.922852,3.567382-.578689,2.238562-1.146579,4.479957-1.701172,6.72461-1.893503,7.279672-3.990062,14.259984-10.508789,18.55957-6.133594,2.127982-12.025236,2.191475-18.4375,2.125-.831445-.004512-1.662891-.009023-2.519531-.013672-2.035188-.011696-4.070338-.029629-6.105469-.048828.763125-.748945,1.52625-1.497891,2.3125-2.269531c9.19707-9.344116,13.880976-20.017867,17.0625-32.605469.43663-1.672196.43663-1.672196.88208-3.378174.929096-3.578675,1.839085-7.161692,2.74292-10.746826.307603-1.21897.615205-2.437939.932129-3.693848c1.514364-6.018546,3.01554-12.040269,4.509277-18.063964c1.47112-5.917894,3.00967-11.812605,4.601563-17.699219c1.150553-4.259394,2.273706-8.525674,3.394531-12.792969.210278-.799944.420557-1.599888.637207-2.424072.428143-1.628803.856202-3.257628,1.28418-4.886475c1.046008-3.980089,2.093629-7.959753,3.141113-11.939453.416675-1.583331.833341-3.166665,1.25-4.75c32.5-123.5,32.5-123.5,33.125977-125.877686.414085-1.574204.827503-3.148584,1.240234-4.723144c1.075593-4.099742,2.16462-8.195262,3.274414-12.285889.22752-.845625.455039-1.69125.689453-2.5625.431857-1.604039.867751-3.207,1.308594-4.808593c1.293867-4.82761,2.09322-9.519475,2.611328-14.492188-.883008-.268125-1.766016-.53625-2.675781-.8125-12.796517-4.178454-22.589156-10.079108-29.324219-22.1875-5.307302-10.714741-6.367219-21.419433-6.3125-33.25.004189-1.270854.008379-2.541709.012695-3.851074.138079-11.940894,1.272192-23.704512,2.61438-35.564392.596094-5.337229,1.094476-10.680142,1.564331-16.029846c7.220071-82.01328,19.370449-163.674185,38.088867-243.870118.855983-3.669851,1.700431-7.342241,2.541306-11.015579c4.062113-17.729753,8.459995-35.317362,13.461136-52.810593c1.049111-3.676117,2.080821-7.356851,3.111816-11.038085c10.692496-37.851096,23.712015-74.706879,39.917969-110.570313.529966-1.17353,1.059932-2.347061,1.605957-3.556152c7.486161-16.519944,15.410038-32.675886,24.394043-48.443848.514336-.918135,1.028672-1.83627,1.558594-2.782227c16.726251-29.843476,36.197172-58.147807,58.017578-84.489746c1.284467-1.558891,2.550617-3.132831,3.814453-4.708496c4.516802-5.629755,9.250642-10.992416,14.185791-16.254638c2.599774-2.772708,5.134963-5.580082,7.611084-8.464112c4.221785-4.84597,8.712031-9.422061,13.245605-13.974121c1.439768-1.449518,2.868478-2.909393,4.297364-4.369629C-7.065508,0.533246,-7.065508,0.533246,0,0Z" transform="translate(989.312 51.75)" fill="#565656"/><path d="M0,0c1.049695.00635,2.099389.012699,3.180893.019241c11.881775.136778,23.700677.958198,35.541763,1.898728c1.145695.088643,2.291389.177286,3.471802.268615c20.258254,1.577651,40.364901,3.787095,60.473877,6.685914c2.661062.382284,5.322926.758574,7.984985,1.13385c5.628642.794486,11.255701,1.599587,16.881836,2.411621c1.316838.189703,1.316838.189703,2.660279.38324c2.496681.361599,4.992533.728421,7.488159,1.097229.726397.105043,1.452793.210086,2.201202.318313c4.385782.655586,8.68797,1.514491,13.010376,2.503418c3.761152.847386,7.544976,1.577787,11.327484,2.3228c32.804598,6.527987,65.495457,13.62598,97.494629,23.446777c2.395074.72623,4.796861,1.421021,7.20459,2.104004c28.812699,8.185036,28.812699,8.185036,34.238281,16.636719c1.359058,5.815502.080808,10.293717-2.8125,15.375-3.480935,6.285249-4.343489,12.285604-5.073486,19.331543-.809949,7.169361-2.445485,13.472316-7.504639,18.820801-5.949575,3.357769-12.899628,2.090968-19.324218.625-3.59032-1.001186-7.132172-2.14454-10.673829-3.304688-5.163932-1.67625-10.359522-3.252099-15.548828-4.847656-1.118181-.345791-2.236362-.691582-3.388427-1.047852-8.398156-2.588955-16.827417-5.0056-25.31128-7.296631-1.817466-.504225-3.630078-1.025972-5.440429-1.555175-8.785208-2.564676-17.616702-4.79847-26.547364-6.787842-.746891-.166581-1.493781-.333162-2.263305-.504792-36.301369-8.027335-73.142719-13.910928-110.111695-17.807708-.769348-.081433-1.538697-.162865-2.33136-.246765-31.354349-5.61668-31.354349-5.61668-60.619552.529983-6.067115,5.083195-9.531892,13.240911-12.982681,20.220688-.441026.881553-.882052,1.763105-1.336442,2.671371-.926302,1.854931-1.849683,3.711323-2.770248,5.569108-1.38337,2.790186-2.777194,5.574951-4.172607,8.35913-4.636951,9.288895-9.076332,18.617595-13.164551,28.160401-1.612881,3.751785-3.340368,7.443725-5.087402,11.134521-3.918561,8.316004-7.535088,16.752873-11.097657,25.226563-.516647,1.228859-.516647,1.228859-1.043731,2.482544-11.124915,26.530087-21.015221,53.427219-30.331269,80.642456-.353354,1.02702-.706708,2.05404-1.07077,3.112182-4.575713,13.334651-8.689561,26.735188-12.396027,40.337525-1.376596,5.051091-2.833219,10.075578-4.320022,15.095245-7.538832,25.454245-13.365343,51.144315-18.742539,77.129059-.342801,1.656316-.686441,3.312459-1.031128,4.968384-14.135488,67.919563-22.547759,137.78163-22.705139,207.209167-.006897,1.917466-.013847,3.834931-.020843,5.752396-.019012,6.090349-.023658,12.180667-.026032,18.271042-.001325,1.552473-.001325,1.552473-.002678,3.13631-.023724,31.297893.31421,62.454553,3.038201,93.655865.232708,2.802366.428217,5.606104.621704,8.411438.147567,1.954306.295666,3.908571.444336,5.862793.05554.884695.111081,1.769389.168304,2.680893.464006,5.722209,1.81791,10.298924,4.243164,15.509644.736969,2.118057.736969,2.118057-.263031,5.118057-.839485,10.816443.881872,21.24105,2.533692,31.887695.689046,4.598932,1.292156,9.208582,1.905517,13.818115c1.483269,11.108163,3.12309,22.151372,5.253906,33.155274.738246,3.83546,1.381051,7.606966,1.732667,11.498291.465582,4.575154,1.589214,8.88523,2.749023,13.328125c1.375554,5.52175,2.424602,11.110433,3.528351,16.691345c5.004971,25.166428,10.984413,50.174693,18.689911,74.658752.925523,2.992501,1.764186,6.008212,2.606933,9.024903c1.99527,7.049954,4.209772,14.024852,6.4375,21.003906c1.15085,3.606537,2.257665,7.224645,3.355469,10.847656c9.147143,29.766058,19.929489,59.069827,31.207031,88.085938.390063,1.003918.780125,2.007835,1.182007,3.042175c2.515675,6.461755,5.055817,12.913302,7.621857,19.355225.831423,2.090785,1.658635,4.183251,2.481384,6.277465c1.152772,2.927938,2.32374,5.847936,3.499909,8.766541.336999.864875.673998,1.729751,1.021209,2.620834c2.785514,6.81833,6.108659,12.198955,12.631134,15.87526c10.708544,3.325039,24.411835.836049,35.3125-.25.696547-.067193,1.393094-.134385,2.110749-.203614c8.787609-.849502,17.545562-1.798648,26.246505-3.319427c4.568416-.794897,9.137394-1.48452,13.733811-2.095428c13.994304-1.880104,27.813588-4.569534,41.658935-7.319031c1.231689-.242999,2.463379-.485997,3.732392-.736359c18.045419-3.565292,35.971048-7.352882,53.767608-12.013641c1.365568-.345012,2.731416-.688914,4.097657-1.03125c11.526391-2.961376,22.904793-6.488235,34.303466-9.901123c2.462017-.730371,4.927211-1.450092,7.39502-2.160645c12.482784-3.595428,24.817094-7.616625,37.141357-11.719482c1.107667-.368551,2.215335-.737102,3.356568-1.116822c32.792262-10.944058,64.986914-23.328258,96.705932-37.070678.87898-.380596,1.757959-.761192,2.663574-1.153321c5.134493-2.233844,10.239733-4.52812,15.336426-6.846679.870117-.393325,1.740235-.786651,2.636719-1.191895c21.880083-9.895079,43.662644-20.039049,64.807617-31.43457c2.880148-1.547928,5.768552-3.079862,8.657227-4.611816c14.848264-7.901044,29.440013-16.16986,43.898437-24.761719.884136-.52336,1.768272-1.046719,2.679199-1.585938c2.546996-1.508763,5.090925-3.022531,7.633301-4.539062c1.053567-.626726,1.053567-.626726,2.128418-1.266114c15.709492-9.431344,31.022916-19.480989,46.246582-29.671386c1.814327-1.212308,3.628699-2.424546,5.443115-3.636719c11.973687-8.004231,23.932306-16.031074,35.876618-24.079071c1.671032-1.125923,3.342386-2.25137,5.014099-3.376282c14.41056-9.701298,28.696481-19.578643,42.666168-29.907928.789793-.583059,1.579585-1.166118,2.393311-1.766846c6.512158-4.82824,12.90509-9.793111,19.245361-14.843994c1.722202-1.365,3.454176-2.71661,5.189453-4.064941c6.934024-5.39366,13.71182-10.930417,20.390625-16.636719c2.889263-2.46416,5.828935-4.86161,8.78125-7.25c4.451538-3.623345,8.736325-7.394639,12.980469-11.257813c2.09027-1.897699,4.201892-3.764521,6.332031-5.617187c4.715949-4.112308,9.364165-8.297732,14-12.5.496128-.449561.992256-.899121,1.503418-1.362305c5.368292-4.871071,10.692136-9.757245,15.765137-14.938721c1.659495-1.628373,3.374023-3.124585,5.149414-4.624755c5.402936-4.701707,10.429983-9.772389,15.482178-14.843995c1.659126-1.664487,3.323534-3.323559,4.988525-4.982177c5.07165-5.068809,10.049483-10.170915,14.70874-15.627198c1.862411-2.152227,3.860526-4.139744,5.902588-6.120849c3.327695-3.288546,6.453365-6.663816,9.496094-10.214844c2.060714-2.349937,4.178648-4.635488,6.311768-6.919434c5.047212-5.404975,9.848713-10.91633,14.481201-16.686035c2.320287-2.81222,4.741649-5.49766,7.210937-8.179687c4.893743-5.329744,9.461073-10.867703,14-16.5.997688-1.218276,1.996449-2.435673,2.996094-3.652344c6.15644-7.506733,12.177805-15.09746,18.042236-22.834717c2.860164-3.77255,5.744887-7.521263,8.68042-11.235595C872.924,638.262688,872.924,638.262688,877.671875,619.484375c-1.069626-6.801514-4.950494-12.484061-8.511719-18.253906-.482754-.787456-.965508-1.574912-1.46289-2.386231-29.47993-47.770464-62.5628-93.351036-98.060547-136.805175-1.307038-1.600949-2.610796-3.204574-3.914063-4.808594-5.291016-6.500392-10.678079-12.914733-16.112304-19.29541-1.468226-1.725784-2.931931-3.455333-4.395508-5.185059-5.972743-7.03693-12.103629-13.891047-18.394531-20.644531-2.054372-2.22029-4.063523-4.457173-6.035157-6.75-7.562565-8.733183-15.539763-17.162747-23.784668-25.252198-1.684537-1.714259-3.236214-3.474537-4.785644-5.310302-4.692958-5.396126-9.760947-10.418511-14.824463-15.462647-1.664488-1.659126-3.323559-3.323534-4.982178-4.988525-5.079023-5.081869-10.191134-10.071313-15.658447-14.73999-1.96597-1.696031-3.786658-3.504006-5.5896-5.371338-3.836044-3.880391-7.861761-7.447236-12-11-1.081458-.944478-2.162119-1.88987-3.242187-2.835938-14.815981-12.955211-30.001735-25.368623-45.757813-37.164062-1.157014-.866734-1.157014-.866734-2.337402-1.750977-18.988328-14.187973-38.531219-27.517355-58.621826-40.102783-10.265685-6.432105-20.479273-13.890038-25.415772-25.33374-1.455275-8.87718-1.307144-16.636525,2.207032-24.984375c3.477037-8.419315,4.93672-16.318617,5.855468-25.390625.129551-1.199473.259102-2.398946.392578-3.634766.315548-2.93342.621958-5.867485.919922-8.802734c3.883701,1.434016,7.295442,3.252476,10.839844,5.386719.55476.333716,1.10952.667432,1.681091,1.01126c1.808688,1.091376,3.61305,2.189621,5.416565,3.289521.620654.377322,1.241307.754645,1.880768,1.143402c12.013737,7.316205,23.667569,15.088821,35.181732,23.169098c1.489404,1.036716,2.978979,2.073186,4.46875,3.109375c29.977377,20.93233,59.126716,43.282202,86.949463,67.01001c3.31877,2.827482,6.683627,5.586838,10.081787,8.318115c5.381422,4.375842,10.439986,9.055588,15.507813,13.785156c2.31459,2.158121,4.661145,4.269082,7.054687,6.339844c4.824129,4.180911,9.512436,8.508512,14.202667,12.838104c1.106143,1.019787,2.2135,2.038259,3.322449,3.054993c10.841495,9.943763,21.287367,20.26471,31.676544,30.678192c2.755854,2.761264,5.517081,5.517074,8.278809,8.272461c1.777665,1.778325,3.55502,3.556959,5.332031,5.335937.81364.811616,1.627281,1.623232,2.465576,2.459442c4.222566,4.239809,8.285351,8.557543,12.189454,13.092591c1.680611,1.950211,3.418084,3.837122,5.18872,5.70578.622617.66,1.245235,1.32,1.886719,2c.625195.66,1.250391,1.32,1.894531,2c4.956555,5.232487,9.793126,10.54142,14.5,16c.732591.849331.732591.849331,1.479981,1.71582c1.405277,1.634043,2.807082,3.270987,4.207519,4.90918c1.040292,1.216208,2.080658,2.432352,3.121094,3.648437.525776.614561,1.051553,1.229121,1.593262,1.862305c1.58245,1.845951,3.169606,3.687742,4.758301,5.52832c5.754502,6.672909,11.399435,13.402289,16.839843,20.335938c1.208496,1.531406,1.208496,1.531406,2.441407,3.09375c2.341817,2.969803,4.675424,5.945957,7.006347,8.924316c1.061029,1.354739,2.123259,2.708538,3.186524,4.061524c12.744605,16.220741,24.976454,32.781592,36.798828,49.685546c1.673169,2.386444,3.355806,4.766027,5.039551,7.14502c6.923687,9.802574,13.648501,19.695609,20.08496,29.824707c1.537929,2.415184,3.087232,4.822827,4.637696,7.229981c12.377891,19.265415,24.392229,38.761038,35.617187,58.722656.568477,1.008449,1.136953,2.016899,1.722657,3.055908c6.624993,11.910314,11.80796,22.243941,8.839843,36.194092-3.829046,11.487139-11.501986,21.238583-18.375,31.0625-1.030085,1.486884-2.060042,2.973857-3.089843,4.460937-10.549929,15.147173-21.55501,29.986836-32.910157,44.539063-.634702.815976-.634702.815976-1.282226,1.648437-10.488974,13.478059-21.235001,26.745052-32.332032,39.727539-1.443033,1.691166-2.87949,3.38777-4.315429,5.084961-5.464005,6.439338-11.02528,12.761219-16.798584,18.925782-2.556329,2.732518-5.056125,5.501163-7.506836,8.329101-12.063329,13.806947-25.076168,26.756385-38.049561,39.699219-2.743531,2.738104-5.481586,5.481605-8.219238,8.225586-1.76921,1.76855-3.53873,3.536791-5.308594,5.304687-.805342.807366-1.610683,1.614732-2.440429,2.446564-4.22188,4.204565-8.523341,8.247812-13.038819,12.135681-1.950892,1.681589-3.838756,3.419762-5.708252,5.191193-.66.622617-1.32,1.245234-2,1.886719-.66.625195-1.32,1.25039-2,1.894531-5.232487,4.956555-10.54142,9.793126-16,14.5-.56622.488393-1.132441.976787-1.71582,1.47998-1.634043,1.405277-3.270937,2.807141-4.90918,4.20752-3.641295,3.112736-7.280887,6.226854-10.898437,9.367187-6.218939,5.387768-12.517514,10.620175-19.02002,15.662598-4.690116,3.647003-9.265022,7.420128-13.831543,11.220215-7.314513,6.065032-14.817659,11.814241-22.460449,17.457031-2.335554,1.732304-4.659262,3.479637-6.980957,5.230469-8.097779,6.106199-16.218977,12.176578-24.433594,18.125-.646948.469782-1.293896.939565-1.960449,1.423584-13.240937,9.540548-26.834268,18.591906-40.414551,27.638916-.785583.52352-1.571166,1.047041-2.380554,1.586426-12.562819,8.366516-25.181338,16.621306-37.994446,24.601074-.995478.622456-1.990957,1.244912-3.016601,1.88623-16.124495,10.068521-32.46224,19.712413-48.983399,29.11377-1.944056,1.111899-3.888068,2.223875-5.832031,3.335937-32.890166,18.760079-66.397638,36.500209-100.878418,52.159668-3.19205,1.459805-6.369535,2.947046-9.543457,4.445801-68.230532,32.133689-140.076814,56.606699-213.054611,75.366348-2.853096.733812-5.704913,1.472475-8.556717,2.211289-23.139439,5.9785-46.703951,11.659014-70.400391,14.910644-2.637238.402758-5.098573.87403-7.678222,1.493164-5.848344,1.313377-11.750917,2.091681-17.688965,2.881836-1.821514.246246-1.821514.246246-3.679825.497467-3.936747.529689-7.87441,1.052223-11.812363,1.572846-1.354464.179748-2.708926.359517-4.063385.539306-16.645995,2.205561-33.298077,4.335898-49.999115,6.085694-.754685.081674-1.509371.163348-2.286926.247497-21.981493,2.353663-42.284185,3.199955-60.470886-11.298278-7.705541-6.96263-12.422853-16.812058-16.769531-26.097657-.512992-1.094565-.512992-1.094565-1.036347-2.211242-4.250616-9.174068-8.06885-18.524835-11.87381-27.89032-.38696-.948992-.773921-1.897984-1.172607-2.875733-7.741184-18.998782-15.116737-38.122106-22.202393-57.374267-.442148-1.198023-.884297-2.396045-1.339843-3.630371-2.973751-8.093279-5.851202-16.217771-8.660157-24.369629-.255677-.741695-.511355-1.483389-.77478-2.247559-10.98375-31.923521-20.679754-64.152616-29.656708-96.692749-.530783-1.923002-1.063843-3.845376-1.597076-5.7677-5.0041-18.109594-9.340586-36.278287-13.207276-54.660645-.679564-3.22934-1.369894-6.456094-2.064941-9.682128-1.04108-4.862706-2.043313-9.732373-3.024902-14.607422-.474448-2.351284-.954446-4.701452-1.438477-7.050782-5.935494-28.881403-9.971154-58.016382-13.830261-87.238098-.354119-2.665561-.715444-5.329942-1.081848-7.993835-1.368749-9.998979-2.434789-20.007092-3.323731-30.059082-.087656-.96869-.175312-1.937381-.265625-2.935425-6.340409-70.826003-7.151937-143.56476-.003235-214.339539.346528-3.51224.654164-7.027313.960038-10.543289c3.347089-38.303665,9.285154-76.367409,16.881027-114.046615.424066-2.116518.840673-4.234356,1.254455-6.352906c3.359198-17.195449,7.148689-34.259748,11.29834-51.282226.206059-.846874.412118-1.693748.62442-2.566284c3.794666-15.540943,7.938677-30.967999,12.68808-46.246216c2.523017-8.161029,2.523017-8.161029,4.851563-16.378906c18.408846-68.038004,46.946986-134.855938,78.064941-197.947266c2.01695-4.118862,3.979143-8.262043,5.935547-12.409912c26.49855-56.082946,26.49855-56.082946,46.710449-63.951416C-11.816214,0.116251,-6.353915,-0.067037,0,0Z" transform="translate(490.84 265.77)" fill="#afafaf"/><path d="M0,0C4.019507,1.869538,5.839861,5.03013,7.411377,9.145752c.651954,2.116605,1.227422,4.239823,1.776123,6.385498.209392.787416.418784,1.574832.634521,2.386108C11.981762,26.148242,13.900565,34.430992,15.6875,42.75c.255295,1.186366.255295,1.186366.515747,2.396698c3.458089,16.190014,6.207711,32.399883,8.205628,48.83316.282118,2.298606.57695,4.595346.872863,6.892212c3.187975,25.206549,3.777724,50.319752,3.780762,75.69043.001467,1.125818.001467,1.125818.002964,2.27438.060258,48.216858-3.719759,96.700172-14.752964,143.737827-.640431,2.741345-1.260342,5.486655-1.875,8.233887-1.229001,5.485377-2.486057,10.96399-3.75,16.441406-.20625.900249-.4125,1.800498-.625,2.728027-2.214644,9.642354-4.547481,19.201813-7.42749,28.668457-1.841598,6.096127-3.432146,12.247012-5.01001,18.416016-1.758852,6.849214-3.607858,13.592316-5.949219,20.269531-1.229267,3.629498-2.298253,7.300387-3.363281,10.980469-1.725368,5.946226-3.516835,11.867158-5.386719,17.769531-.258865.817739-.51773,1.635478-.784439,2.477997-26.147623,82.343572-58.411081,162.415512-109.842514,261.792511-1.481891,2.66471-2.954605,5.33431-4.423706,8.006088-1.319446,2.398746-2.642114,4.795707-3.965454,7.192307-.933498,1.691496-1.864986,3.3841-2.796387,5.076752-1.785669,3.220896-3.605271,6.421009-5.425781,9.622314-.323958.597541-.647915,1.195082-.981689,1.81073-.989489,1.824904-2.008703,3.630354-3.033936,5.435364-.595869,1.07822-1.191738,2.15644-1.805664,3.267334-2.178711,2.486572-2.178711,2.486572-5.736328,3.459472-4.38229.034499-5.976894-1.392217-9.442383-3.9729-5.042054-2.165162-9.497787-2.243481-14.875-2.125-1.175625.013535-1.175625.013535-2.375.027344-1.916801.023375-3.833442.059239-5.75.097656-.172211.961479-.172211.961479-.3479,1.942383-2.991985,16.528268-6.66881,32.785395-10.87378,49.04541-1.006547,3.895476-1.990237,7.796382-2.96582,11.699707-.306797,1.220742-.613594,2.441484-.929687,3.699219-.775049,3.172211-1.504842,6.351741-2.223389,9.537109-1.983045,8.724168-4.410332,17.282308-6.95166,25.859375-1.98853,6.717563-3.888332,13.451569-5.707764,20.216797-2.332634,8.653846-4.80535,17.260165-7.333008,25.858887-2.026512,6.907561-3.99079,13.829963-5.916992,20.766113-2.767897,9.96443-5.635836,19.897706-8.526611,29.826965-3.417263,11.741579-6.81059,23.484698-9.973389,35.298035-.271831,1.012961-.543662,2.025923-.82373,3.06958-1.444643,5.413706-2.850163,10.83602-4.230957,16.266358-.456812,1.765854-.456812,1.765854-.922852,3.567382-.578689,2.238562-1.146579,4.479957-1.701172,6.72461-1.893503,7.279672-3.990062,14.259984-10.508789,18.55957-6.133594,2.127982-12.025236,2.191475-18.4375,2.125-.831445-.004512-1.662891-.009023-2.519531-.013672-2.035188-.011696-4.070338-.029629-6.105469-.048828.763125-.748945,1.52625-1.497891,2.3125-2.269531c9.19707-9.344116,13.880976-20.017867,17.0625-32.605469.43663-1.672196.43663-1.672196.88208-3.378174.929096-3.578675,1.839085-7.161692,2.74292-10.746826.461404-1.828455.461404-1.828455.932129-3.693848c1.514364-6.018546,3.01554-12.040269,4.509277-18.063964c1.47112-5.917894,3.00967-11.812605,4.601563-17.699219c1.150553-4.259394,2.273706-8.525674,3.394531-12.792969.210278-.799944.420557-1.599888.637207-2.424072.428143-1.628803.856202-3.257628,1.28418-4.886475c1.046008-3.980089,2.093629-7.959753,3.141113-11.939453.416675-1.583331.833341-3.166665,1.25-4.75c32.5-123.5,32.5-123.5,33.125977-125.877686.414085-1.574204.827503-3.148584,1.240234-4.723144c1.075593-4.099742,2.16462-8.195262,3.274414-12.285889.22752-.845625.455039-1.69125.689453-2.5625.431857-1.604039.867751-3.207,1.308594-4.808593c1.293867-4.82761,2.09322-9.519475,2.611328-14.492188-.883008-.268125-1.766016-.53625-2.675781-.8125-12.796517-4.178454-22.589156-10.079108-29.324219-22.1875-5.307302-10.714741-6.367219-21.419433-6.3125-33.25.006284-1.906282.006284-1.906282.012695-3.851074.138079-11.940894,1.272192-23.704512,2.61438-35.564392.596094-5.337229,1.094476-10.680142,1.564331-16.029846c7.220071-82.01328,19.370449-163.674185,38.088867-243.870118.855983-3.669851,1.700431-7.342241,2.541306-11.015579c4.062113-17.729753,8.459995-35.317362,13.461136-52.810593c1.049111-3.676117,2.080821-7.356851,3.111816-11.038085c10.692496-37.851096,23.712015-74.706879,39.917969-110.570313.529966-1.17353,1.059932-2.347061,1.605957-3.556152c7.486161-16.519944,15.410038-32.675886,24.394043-48.443848.514336-.918135,1.028672-1.83627,1.558594-2.782227c16.726251-29.843476,36.197172-58.147807,58.017578-84.489746c1.284467-1.558891,2.550617-3.132831,3.814453-4.708496c4.516802-5.629755,9.250642-10.992416,14.185791-16.254638c2.599774-2.772708,5.134963-5.580082,7.611084-8.464112c4.221785-4.84597,8.712031-9.422061,13.245605-13.974121c1.439768-1.449518,2.868478-2.909393,4.297364-4.369629C-7.065508,0.533246,-7.065508,0.533246,0,0Z" transform="translate(989.312 51.75)" fill="#c953ea"/><path d="M0,0c.440887,10.767744-.869874,21.429061-1.9375,32.125-.215516,2.193984-.430756,4.387996-.645752,6.582031-.568711,5.781658-1.144313,11.562612-1.722516,17.343327-.596797,5.968293-1.189772,11.936961-1.782123,17.905697-.992586,9.9979-1.991261,19.995183-2.993438,29.992126-.403321,4.023502-.805142,8.04715-1.20575,12.070923-.479659,4.815129-.963442,9.629829-1.450172,14.444248-.180303,1.789544-.359284,3.579221-.53682,5.369042C-15.012797,163.413296,-15.012797,163.413296,-19,169c-2.898437,1.335938-2.898437,1.335938-6.375,2.375C-37.54934,175.412217,-47.418694,181.480441,-57,190c-.994955.864679-.994955.864679-2.01001,1.746826-8.215358,7.236994-15.853089,15.039086-23.55249,22.815674-2.706796,2.733306-5.416849,5.463322-8.128906,8.191406-.619682.62798-1.239363,1.25596-1.877823,1.90297C-94.027374,226.123496,-95.511017,227.564698,-97,229c-.33,0-.66,0-1,0c.662135-9.159586,1.488891-18.293578,2.417969-27.429687.13921-1.37843.278332-2.756869.417373-4.135315.371374-3.67588.745102-7.351517,1.119629-11.027077.23405-2.297858.467537-4.595773.700913-6.8937c2.652351-26.100454,5.385897-52.192261,8.321487-78.262604.622456-5.537376,1.208102-11.076347,1.755051-16.621734.125502-1.229433.251005-2.458867.38031-3.725556.242163-2.37607.474933-4.753122.696899-7.131164.111484-1.073537.222968-2.147075.33783-3.253143.09247-.946646.18494-1.893291.280212-2.868622C-80.913436,64.598979,-79.781727,62.550112,-78,60c1.699219-1.082031,1.699219-1.082031,3.6875-1.8125c23.953447-9.753032,40.895641-25.590397,58.875-43.75c2.706796-2.733306,5.416849-5.463322,8.128906-8.191406.929523-.94197.929523-.94197,1.877823-1.90297C-1.112746,0,-1.112746,0,0,0Z" transform="translate(741 567)" fill="#c953ea"/><path d="M0,0c.66,0,1.32,0,2,0c.130518.880349.261035,1.760698.395508,2.667725C5.651038,26.047467,5.651038,26.047467,11,49c.359165,1.229524.359165,1.229524.725586,2.483887c4.654009,15.56558,10.422155,29.309695,20.708008,42.051269c2.20361,3.467527,3.027567,6.21996,2.183838,10.327149-2.328048,7.581008-5.935261,14.757121-9.242432,21.950195-.664076,1.452105-1.328055,2.904254-1.991943,4.356445C15.740648,146.850532,7.899168,163.43875,0,180c-.308952.648197-.617904,1.296394-.936218,1.964233-6.899475,14.470387-13.925188,28.87915-21.050598,43.239563-.751294,1.51568-1.500683,3.032306-2.248047,4.549927-1.043277,2.116404-2.094512,4.228666-3.147949,6.340027-.46009.938624-.46009.938624-.929474,1.89621C-30.177223,241.701207,-32.29732,244.848733,-35,248c-.566097-2.207463-1.128492-4.415737-1.6875-6.625-.179341-.707856-.358682-1.415713-.543457-2.14502-1.044448-4.173317-2.027182-8.353279-2.937012-12.558105-5.11064-23.596425-12.137289-47.458278-28.019531-66.261719-2.166116-2.880374-2.62715-5.047541-2.429687-8.636718c1.101414-4.949394,3.611894-9.222441,5.96875-13.667969c3.279669-6.217759,6.197359-12.602294,9.148437-18.980469c1.216353-2.620301,2.434334-5.239844,3.652344-7.859375.467846-1.006911.467846-1.006911.945144-2.034164c3.290734-7.077499,6.618096-14.137637,9.946915-21.197281c5.684766-12.05625,11.330934-24.128937,16.927765-36.226319c3.153683-6.804622,6.336871-13.59444,9.543457-20.374267.387247-.818837.774495-1.637674,1.173477-2.481323c1.91474-4.047021,3.83197-8.092845,5.75206-12.13733.700618-1.47867,1.401221-2.957348,2.101807-4.436035.320231-.672694.640462-1.345388.970398-2.038467C-2.873887,6.933618,-1.352892,3.51853,0,0Z" transform="translate(940 624)" fill="#c953ea"/><path d="M0,0c8.26746-.413158,13.328869.833853,20,6-3.077738,17.183499-6.851326,34.08826-11.22168,50.987793C7.771773,60.883269,6.788083,64.784175,5.8125,68.6875c-.306797,1.220742-.613594,2.441484-.929687,3.699219-.775049,3.172211-1.504842,6.351741-2.223389,9.537109-1.983045,8.724168-4.410332,17.282308-6.95166,25.859375C-6.280766,114.500766,-8.180568,121.234772,-10,128c-2.332634,8.653846-4.80535,17.260165-7.333008,25.858887-2.026512,6.907561-3.99079,13.829963-5.916992,20.766113-2.767897,9.96443-5.635836,19.897706-8.526611,29.826965-3.417263,11.741579-6.81059,23.484698-9.973389,35.298035-.271831,1.012961-.543662,2.025923-.82373,3.06958-1.444643,5.413706-2.850163,10.83602-4.230957,16.266358-.456812,1.765854-.456812,1.765854-.922852,3.567382-.578689,2.238562-1.146579,4.479957-1.701172,6.72461-1.893503,7.279672-3.990062,14.259984-10.508789,18.55957-6.133594,2.127982-12.025236,2.191475-18.4375,2.125-.831445-.004512-1.662891-.009023-2.519531-.013672-2.035188-.011696-4.070338-.029629-6.105469-.048828.763125-.748945,1.52625-1.497891,2.3125-2.269531c9.19707-9.344116,13.880976-20.017867,17.0625-32.605469.291086-1.114797.582173-2.229595.88208-3.378174C-65.813824,248.168151,-64.903835,244.585134,-64,241c.307603-1.21897.615205-2.437939.932129-3.693848c1.514364-6.018546,3.01554-12.040269,4.509277-18.063964c1.47112-5.917894,3.00967-11.812605,4.601563-17.699219c1.150553-4.259394,2.273706-8.525674,3.394531-12.792969.210278-.799944.420557-1.599888.637207-2.424072.428143-1.628803.856202-3.257628,1.28418-4.886475C-47.595105,177.459364,-46.547484,173.4797,-45.5,169.5c.416675-1.583331.833341-3.166665,1.25-4.75c10.833333-41.166667,21.666667-82.333333,32.5-123.5.206411-.784636.412822-1.569272.625488-2.377686.414494-1.574525.829528-3.148908,1.245117-4.723144c1.079515-4.092065,2.14797-8.186589,3.199708-12.285889.218496-.845625.436992-1.69125.662109-2.5625.413692-1.601955.824111-3.204762,1.230469-4.808593C-3.497149,9.516002,-1.875862,4.787242,0,0Z" transform="translate(779 794)" fill="#575757"/><path d="M0,0c.825.639375,1.65,1.27875,2.5,1.9375.804375.53625,1.60875,1.0725,2.4375,1.625c8.688427,8.052689,14.105722,19.196913,14.765625,31.011719.261129,13.517158-2.32248,25.467995-11.648437,35.894531-9.622562,9.090661-20.517319,13.125916-33.68628,12.939453C-38.156168,82.842529,-46.987605,76.996542,-55.3125,68c-3.125499-3.760704-5.373607-7.527767-7.1875-12.0625-.448594-1.106016-.448594-1.106016-.90625-2.234375-3.854448-10.920937-3.077609-22.982248.90625-33.765625c5.92203-12.346536,14.510178-20.783807,27.25-25.875C-22.958607,-9.529703,-10.641593,-6.813877,0,0Z" transform="translate(947.5 254.062)" fill="#fbfbfa"/><path d="M0,0c3-.3125,3-.3125,6,0C8,2,8,2,8.082031,3.882813C7.993086,4.622734,7.904141,5.362656,7.8125,6.125c-.076055.724453-.152109,1.448906-.230469,2.195313C7,11,7,11,5.476563,14.613281C3.505238,19.719745,3.505837,24.641734,3.5625,30.0625c.007573,1.014976.015146,2.029951.022949,3.075684C3.879888,46.680227,7.923804,57.989386,14,70c-9.521909-2.354659-19.933925-5.9744-26.035156-14.109375-3.400441-6.663212-.26042-14.394436,1.75-21.074219c1.091737-3.353503,2.36331-6.619907,3.662597-9.897461c2.627199-6.628966,4.299594-12.323127,4.419434-19.563476C-2,3,-2,3,0,0Z" transform="translate(749 1037)" fill="#5b5b5b"/></svg>
